<svg xmlns="http://www.w3.org/2000/svg" viewBox="0 0 851.798 64.172"><title>ibd-blue-logo</title><path d="M18.809,93.125l5.175-7.275v-48l-5.175-7.275H38.983l-5.175,7.275v48l5.175,7.275Z" transform="translate(-18.809 -30.078)" style="fill:#2b3087"/><path d="M75.467,93.049c-5.625-9.6-22.274-34.8-22.274-34.8V93.125H45.768v-45.6l-5.175-7.2H51.768L73.742,73.7V40.327h7.5V93.049Z" transform="translate(-18.809 -30.078)" style="fill:#2b3087"/><path d="M109.891,93.125h-6.825l-15.6-48.148-3.3-4.65h11.4L107.416,77.6l10.35-32.623-3.3-4.65H126.99Z" transform="translate(-18.809 -30.078)" style="fill:#2b3087"/><path d="M157.584,93.125H131.71v-52.8h27.3L156.16,47.3H140.71V62.676h15.074L152.86,69.95H140.71V85.475H160.66Z" transform="translate(-18.809 -30.078)" style="fill:#2b3087"/><path d="M176.63,94.25a31.962,31.962,0,0,1-13.649-2.85l2.4-8.024c5.4,5.249,20.4,5.175,20.4-3.225,0-11.249-22.573-10.124-22.573-27,0-8.549,6.6-13.874,16.8-13.874a24.256,24.256,0,0,1,11.7,2.55l-2.85,7.874c-3.825-4.5-16.874-4.874-16.874,2.625,0,9.825,22.5,10.8,22.5,25.5C194.48,87.125,188.255,94.25,176.63,94.25Z" transform="translate(-18.809 -30.078)" style="fill:#2b3087"/><path d="M216.9,47.3V93.125h-9V47.3h-13.8l2.1-6.975h31.873l2.4,6.975Z" transform="translate(-18.809 -30.078)" style="fill:#2b3087"/><path d="M249.3,94.174c-14.774,0-19.649-16.124-19.649-28.123,0-12.075,6.149-26.774,20.174-26.774,14.774,0,19.649,16.124,19.649,28.123C269.471,79.475,263.321,94.174,249.3,94.174Zm0-47.548c-9.149,0-10.349,12.524-10.349,19.124s1.35,21.074,10.874,21.074c9.15,0,10.35-12.524,10.35-19.124S258.821,46.627,249.3,46.627Z" transform="translate(-18.809 -30.078)" style="fill:#2b3087"/><path d="M302.471,93.125,286.421,69.5V93.125h-9V45.8l-3.9-5.475H293.1c8.775,0,15.6,6,15.6,14.85,0,7.8-3.6,13.949-11.549,15.3l16.649,22.649Zm-10.8-45.9h-5.249V64.4H291.9c4.35,0,8.1-3.15,8.1-8.775C300,50.826,297,47.227,291.671,47.227Z" transform="translate(-18.809 -30.078)" style="fill:#2b3087"/><path d="M313.408,56.826a19.189,19.189,0,0,0,2.25-8.625c-3.449-.3-5.174-2.175-5.174-4.95a4.667,4.667,0,0,1,4.725-4.95c2.773,0,5.7,2.25,5.7,7.05A12.8,12.8,0,0,1,313.408,56.826Z" transform="translate(-18.809 -30.078)" style="fill:#2b3087"/><path d="M338.074,94.25a31.954,31.954,0,0,1-13.648-2.85l2.4-8.024c5.4,5.249,20.4,5.175,20.4-3.225,0-11.249-22.574-10.124-22.574-27,0-8.549,6.6-13.874,16.8-13.874a24.257,24.257,0,0,1,11.7,2.55L350.3,49.7c-3.824-4.5-16.875-4.874-16.875,2.625,0,9.825,22.5,10.8,22.5,25.5C355.924,87.125,349.7,94.25,338.074,94.25Z" transform="translate(-18.809 -30.078)" style="fill:#2b3087"/><path d="M395.748,92.625H374.674l4.875-6.825V36.9l-4.875-6.824H396.2c12.674,0,18.373,7.424,18.373,15.374,0,7.874-3.973,12.749-8.924,14.175a15.469,15.469,0,0,1,11.4,15C417.047,85.875,410.146,92.625,395.748,92.625Zm.148-55.348h-6.824V56.7H394.7c6.449,0,10.35-4.2,10.35-10.724C405.047,41.477,402.123,37.277,395.9,37.277Zm1.5,27h-8.324V85.05h7.5c7.049,0,10.875-4.275,10.875-10.124C407.447,68.775,403.473,64.276,397.4,64.276Z" transform="translate(-18.809 -30.078)" style="fill:#2b3087"/><path d="M441.277,93.45c-11.25,0-17.7-6.975-17.7-20.475v-28.5l-3.3-4.65h12.3v33c0,8.474,3.074,12.9,9.074,12.9s9.3-4.5,9.3-12.524V45.526l-4.049-5.7h12.074V73.576C458.977,85.5,453.127,93.45,441.277,93.45Z" transform="translate(-18.809 -30.078)" style="fill:#2b3087"/><path d="M477.709,93.75A31.961,31.961,0,0,1,464.06,90.9l2.4-8.024c5.4,5.249,20.4,5.175,20.4-3.225,0-11.25-22.574-10.125-22.574-27,0-8.549,6.6-13.874,16.8-13.874a24.257,24.257,0,0,1,11.7,2.55l-2.85,7.874c-3.824-4.5-16.873-4.874-16.873,2.625,0,9.825,22.5,10.8,22.5,25.5C495.559,86.625,489.334,93.75,477.709,93.75Z" transform="translate(-18.809 -30.078)" style="fill:#2b3087"/><path d="M502.533,92.625v-47.7l-3.674-5.1h12.674v52.8Z" transform="translate(-18.809 -30.078)" style="fill:#2b3087"/><path d="M551.357,92.549c-5.625-9.6-22.275-34.8-22.275-34.8V92.625h-7.424v-45.6l-5.176-7.2h11.176L549.633,73.2V39.827h7.5V92.549Z" transform="translate(-18.809 -30.078)" style="fill:#2b3087"/><path d="M592.605,92.625H566.732V42.752l-2.1-2.925h29.4L591.18,46.8H575.732V62.176H590.8l-2.924,7.275H575.732V84.975H595.68Z" transform="translate(-18.809 -30.078)" style="fill:#2b3087"/><path d="M611.65,93.75A31.96,31.96,0,0,1,598,90.9l2.4-8.024c5.4,5.249,20.4,5.175,20.4-3.225,0-11.25-22.574-10.125-22.574-27,0-8.549,6.6-13.874,16.8-13.874a24.252,24.252,0,0,1,11.7,2.55l-2.85,7.874C620.051,44.7,607,44.327,607,51.826c0,9.825,22.5,10.8,22.5,25.5C629.5,86.625,623.275,93.75,611.65,93.75Z" transform="translate(-18.809 -30.078)" style="fill:#2b3087"/><path d="M644.5,93.75a31.954,31.954,0,0,1-13.648-2.85l2.4-8.024c5.4,5.249,20.4,5.175,20.4-3.225,0-11.25-22.572-10.125-22.572-27,0-8.549,6.6-13.874,16.8-13.874a24.257,24.257,0,0,1,11.7,2.55l-2.85,7.874c-3.826-4.5-16.875-4.874-16.875,2.625,0,9.825,22.5,10.8,22.5,25.5C662.35,86.625,656.125,93.75,644.5,93.75Z" transform="translate(-18.809 -30.078)" style="fill:#2b3087"/><path d="M698.822,94.125H677.6l4.725-7.05V38.552L677.6,31.578h20.248c18.225,0,26.773,11.549,26.773,30C724.621,82.8,715.7,94.125,698.822,94.125ZM697.174,39H692.3V86.475H698c10.275,0,16.273-7.125,16.273-24C714.271,47.327,708.947,39,697.174,39Z" transform="translate(-18.809 -30.078)" style="fill:#2b3087"/><path d="M757.549,94.125,753.574,80.7h-15.15l-3.975,13.424h-9.3l17.1-47.849-1.875-4.949H751.1l16.725,52.8Zm-11.475-39-5.926,18.824h11.625Z" transform="translate(-18.809 -30.078)" style="fill:#2b3087"/><path d="M773.6,94.125v-47.7l-3.676-5.1H782.6v52.8Z" transform="translate(-18.809 -30.078)" style="fill:#2b3087"/><path d="M816.2,94.125h-24.75V43.877l-1.873-2.55h10.949V86.475h18.6Z" transform="translate(-18.809 -30.078)" style="fill:#2b3087"/><path d="M836.211,72V94.125h-9V72.15L812.887,45.676l-3.15-4.349H820.76l11.775,22.724,9.75-18.525-3.076-4.2h13.725Z" transform="translate(-18.809 -30.078)" style="fill:#2b3087"/><path d="M864.719,49.187a5.125,5.125,0,1,1,4.953-5.14A4.943,4.943,0,0,1,864.719,49.187Zm0,.778a5.9,5.9,0,1,0-5.92-5.918A5.9,5.9,0,0,0,864.719,49.965Zm.793-5.649c1.168-.032,2.068-.517,2.068-1.809,0-1.089-.588-1.739-2.336-1.739h-2.877v6.583h.807V44.316h1.481l1.883,3.035h.967Zm-2.338-.642V41.338h1.887c.813,0,1.65.129,1.65,1.154,0,1.338-1.369,1.182-2.307,1.182Z" transform="translate(-18.809 -30.078)" style="fill:#2b3087"/></svg>