<svg xmlns="http://www.w3.org/2000/svg" viewBox="0 0 851.79 64.177"><title>ibd-black-logo</title><path d="M0,63.047l5.175-7.275v-48L0,0.5H20.174L15,7.772v48l5.175,7.275H0Z" transform="translate(0 0.002)"/><path d="M56.658,62.971c-5.625-9.6-22.274-34.8-22.274-34.8V63.047H26.959v-45.6l-5.175-7.2H32.959L54.933,43.622V10.249h7.5V62.971H56.658Z" transform="translate(0 0.002)"/><path d="M91.082,63.047H84.257L68.657,14.9l-3.3-4.65h11.4l11.85,37.273L98.957,14.9l-3.3-4.65h12.524Z" transform="translate(0 0.002)"/><path d="M138.775,63.047H112.9v-52.8h27.3l-2.85,6.975H121.9V32.6h15.074l-2.924,7.274H121.9V55.4h19.95Z" transform="translate(0 0.002)"/><path d="M157.821,64.172a31.962,31.962,0,0,1-13.649-2.85l2.4-8.024c5.4,5.249,20.4,5.175,20.4-3.225,0-11.249-22.573-10.124-22.573-27C144.4,14.524,151,9.2,161.2,9.2a24.256,24.256,0,0,1,11.7,2.55l-2.85,7.874c-3.825-4.5-16.874-4.874-16.874,2.625,0,9.825,22.5,10.8,22.5,25.5C175.671,57.047,169.446,64.172,157.821,64.172Z" transform="translate(0 0.002)"/><path d="M198.091,17.222V63.047h-9V17.222h-13.8l2.1-6.975h31.873l2.4,6.975H198.091Z" transform="translate(0 0.002)"/><path d="M230.491,64.1c-14.774,0-19.649-16.124-19.649-28.123,0-12.075,6.149-26.774,20.174-26.774,14.774,0,19.649,16.124,19.649,28.123C250.662,49.4,244.512,64.1,230.491,64.1Zm0-47.548c-9.149,0-10.349,12.524-10.349,19.124s1.35,21.074,10.874,21.074c9.15,0,10.35-12.524,10.35-19.124s-1.354-21.073-10.875-21.073h0Z" transform="translate(0 0.002)"/><path d="M283.662,63.047l-16.05-23.625V63.047h-9V15.722l-3.9-5.475h19.579c8.775,0,15.6,6,15.6,14.85,0,7.8-3.6,13.949-11.549,15.3l16.649,22.649H283.662Zm-10.8-45.9h-5.249V34.322h5.478c4.35,0,8.1-3.15,8.1-8.775,0-4.8-3-8.4-8.329-8.4v0Z" transform="translate(0 0.002)"/><path d="M294.6,26.748a19.189,19.189,0,0,0,2.25-8.625c-3.449-.3-5.174-2.175-5.174-4.95a4.667,4.667,0,0,1,4.375-4.942q0.175-.011.35-0.008c2.773,0,5.7,2.25,5.7,7.05A12.8,12.8,0,0,1,294.6,26.748Z" transform="translate(0 0.002)"/><path d="M319.265,64.172a31.954,31.954,0,0,1-13.648-2.85l2.4-8.024c5.4,5.249,20.4,5.175,20.4-3.225,0-11.249-22.574-10.124-22.574-27,0-8.549,6.6-13.874,16.8-13.874a24.257,24.257,0,0,1,11.7,2.55l-2.852,7.873c-3.824-4.5-16.875-4.874-16.875,2.625,0,9.825,22.5,10.8,22.5,25.5C337.115,57.047,330.891,64.172,319.265,64.172Z" transform="translate(0 0.002)"/><path d="M376.939,62.547H355.865l4.875-6.825V6.822L355.865,0h21.526c12.674,0,18.373,7.424,18.373,15.374,0,7.874-3.973,12.749-8.924,14.175a15.469,15.469,0,0,1,11.4,15C398.238,55.8,391.337,62.547,376.939,62.547ZM377.087,7.2h-6.824V26.622h5.628c6.449,0,10.35-4.2,10.35-10.724,0-4.5-2.927-8.7-9.15-8.7h0Zm1.5,27h-8.324V54.972h7.5c7.049,0,10.875-4.275,10.875-10.124,0-6.151-3.974-10.65-10.047-10.65h0Z" transform="translate(0 0.002)"/><path d="M422.468,63.372c-11.25,0-17.7-6.975-17.7-20.475V14.4l-3.3-4.65h12.3v33c0,8.474,3.074,12.9,9.074,12.9s9.3-4.5,9.3-12.524V15.448l-4.049-5.7h12.074V43.5C440.168,55.422,434.318,63.372,422.468,63.372Z" transform="translate(0 0.002)"/><path d="M458.9,63.672a31.961,31.961,0,0,1-13.649-2.85l2.4-8.024c5.4,5.249,20.4,5.175,20.4-3.225,0-11.25-22.574-10.125-22.574-27,0-8.549,6.6-13.874,16.8-13.874a24.257,24.257,0,0,1,11.7,2.55l-2.85,7.874c-3.824-4.5-16.873-4.874-16.873,2.625,0,9.825,22.5,10.8,22.5,25.5C476.75,56.547,470.525,63.672,458.9,63.672Z" transform="translate(0 0.002)"/><path d="M483.724,62.547v-47.7l-3.674-5.1h12.674v52.8h-9Z" transform="translate(0 0.002)"/><path d="M532.548,62.471c-5.625-9.6-22.275-34.8-22.275-34.8V62.547h-7.424v-45.6l-5.176-7.2h11.176l21.975,33.375V9.749h7.5V62.471h-5.776Z" transform="translate(0 0.002)"/><path d="M573.8,62.547H547.923V12.674l-2.1-2.925h29.4l-2.852,6.973H556.923V32.1h15.068l-2.924,7.275H556.923V54.9h19.948Z" transform="translate(0 0.002)"/><path d="M592.841,63.672a31.96,31.96,0,0,1-13.65-2.85l2.4-8.024c5.4,5.249,20.4,5.175,20.4-3.225,0-11.25-22.574-10.125-22.574-27,0-8.549,6.6-13.874,16.8-13.874a24.252,24.252,0,0,1,11.7,2.55l-2.85,7.874c-3.825-4.5-16.876-4.874-16.876,2.625,0,9.825,22.5,10.8,22.5,25.5C610.691,56.547,604.466,63.672,592.841,63.672Z" transform="translate(0 0.002)"/><path d="M625.691,63.672a31.954,31.954,0,0,1-13.648-2.85l2.4-8.024c5.4,5.249,20.4,5.175,20.4-3.225,0-11.25-22.572-10.125-22.572-27,0-8.549,6.6-13.874,16.8-13.874a24.257,24.257,0,0,1,11.7,2.55l-2.85,7.874c-3.826-4.5-16.875-4.874-16.875,2.625,0,9.825,22.5,10.8,22.5,25.5C643.541,56.547,637.316,63.672,625.691,63.672Z" transform="translate(0 0.002)"/><path d="M680.013,64.047H658.791L663.516,57V8.474L658.791,1.5h20.248c18.225,0,26.773,11.549,26.773,30C705.812,52.722,696.891,64.047,680.013,64.047ZM678.365,8.922h-4.874V56.4h5.7c10.275,0,16.273-7.125,16.273-24C695.462,17.249,690.138,8.922,678.365,8.922Z" transform="translate(0 0.002)"/><path d="M738.74,64.047l-3.975-13.425h-15.15L715.64,64.046h-9.3L723.44,16.2l-1.875-4.949h10.726l16.725,52.8H738.74Zm-11.475-39-5.926,18.824h11.625Z" transform="translate(0 0.002)"/><path d="M754.791,64.047v-47.7l-3.676-5.1h12.676v52.8h-9Z" transform="translate(0 0.002)"/><path d="M797.391,64.047h-24.75V13.8l-1.873-2.55h10.949V56.4h18.6Z" transform="translate(0 0.002)"/><path d="M817.4,41.922V64.047h-9V42.072L794.078,15.6l-3.15-4.349h11.023l11.775,22.724,9.75-18.525-3.076-4.2h13.725Z" transform="translate(0 0.002)"/><path d="M845.91,19.109a5.125,5.125,0,1,1,4.95-5.294q0,0.077,0,.154a4.943,4.943,0,0,1-4.742,5.136Q846.016,19.109,845.91,19.109Zm0,0.778a5.9,5.9,0,1,0-.038,0h0.038Zm0.793-5.649c1.168-.032,2.068-0.517,2.068-1.809,0-1.089-.588-1.739-2.336-1.739h-2.877v6.583h0.807V14.238h1.481l1.883,3.035H848.7Zm-2.338-.642V11.26h1.887c0.813,0,1.65.129,1.65,1.154,0,1.338-1.369,1.182-2.307,1.182h-1.23Z" transform="translate(0 0.002)"/></svg>